<svg width="18" height="18" viewBox="0 0 18 18" fill="none" xmlns="http://www.w3.org/2000/svg">
<path fill-rule="evenodd" clip-rule="evenodd" d="M11.3851 12.4456C8.73482 14.5682 4.85538 14.4011 2.3986 11.9444C-0.23744 9.30832 -0.23744 5.03445 2.3986 2.39842C5.03464 -0.237623 9.3085 -0.237623 11.9445 2.39842C14.4013 4.8552 14.5684 8.73462 12.4457 11.3849L17.6014 16.5405C17.8943 16.8334 17.8943 17.3083 17.6014 17.6012C17.3085 17.8941 16.8336 17.8941 16.5407 17.6012L11.3851 12.4456ZM3.45926 10.8837C1.40901 8.83344 1.40901 5.50933 3.45926 3.45908C5.50951 1.40882 8.83363 1.40882 10.8839 3.45908C12.9326 5.50782 12.9341 8.82856 10.8884 10.8792C10.8869 10.8807 10.8854 10.8822 10.8839 10.8837C10.8824 10.8852 10.8809 10.8867 10.8794 10.8882C8.82876 12.9339 5.50801 12.9324 3.45926 10.8837Z" fill="#1D2D35"/>
</svg>
